HIERARCHY
ROOT Hips
{
	OFFSET 0.000000 71.427986 0.000000
	CHANNELS 6 Xposition Yposition Zposition Xrotation Yrotation Zrotation
	JOINT Pelvis
	{
		OFFSET 0.000000 0.000000 0.000000
		CHANNELS 3 Xrotation Yrotation Zrotation
		JOINT LeftUpLeg
		{
			OFFSET 6.797100 -2.508499 -1.318700
			CHANNELS 3 Xrotation Yrotation Zrotation
			JOINT LeftLeg
			{
				OFFSET 0.069008 -29.241863 0.690200
				CHANNELS 3 Xrotation Yrotation Zrotation
				JOINT LeftFoot
				{
					OFFSET -0.069008 -29.568123 -0.266800
					CHANNELS 3 Xrotation Yrotation Zrotation
					JOINT LeftToeBase
					{
						OFFSET 3.145500 -8.631000 16.059900
						CHANNELS 3 Xrotation Yrotation Zrotation
						End Site
						{
							OFFSET 0.000000 18.501587 0.000000
						}
					}
				}
			}
			JOINT Left_ShortSleeve
			{
				OFFSET 0.265923 -10.480953 1.153800
				CHANNELS 3 Xrotation Yrotation Zrotation
				End Site
				{
					OFFSET 1.725763 19.823879 0.000000
				}
			}
		}
		JOINT RightUpLeg
		{
			OFFSET -6.797100 -2.508499 -1.318700
			CHANNELS 3 Xrotation Yrotation Zrotation
			JOINT RightLeg
			{
				OFFSET -0.082453 -29.241932 0.688000
				CHANNELS 3 Xrotation Yrotation Zrotation
				JOINT RightFoot
				{
					OFFSET 0.082453 -29.568058 -0.264600
					CHANNELS 3 Xrotation Yrotation Zrotation
					JOINT RightToeBase
					{
						OFFSET -3.115300 -8.682800 16.113400
						CHANNELS 3 Xrotation Yrotation Zrotation
						End Site
						{
							OFFSET 0.000000 18.567114 0.000000
						}
					}
				}
			}
			JOINT Right_ShortSleeve
			{
				OFFSET -0.265923 -10.480953 1.153800
				CHANNELS 3 Xrotation Yrotation Zrotation
				End Site
				{
					OFFSET -1.725766 19.823910 0.000000
				}
			}
		}
	}
	JOINT Spine
	{
		OFFSET 0.000000 13.368103 0.470500
		CHANNELS 3 Xrotation Yrotation Zrotation
		JOINT Spine1
		{
			OFFSET 0.147000 13.837402 0.538800
			CHANNELS 3 Xrotation Yrotation Zrotation
			JOINT Spine2
			{
				OFFSET 0.168000 16.242897 -1.435500
				CHANNELS 3 Xrotation Yrotation Zrotation
				JOINT Neck
				{
					OFFSET 0.217200 18.631500 -1.679100
					CHANNELS 3 Xrotation Yrotation Zrotation
					JOINT Head
					{
						OFFSET 0.000000 6.599396 1.385900
						CHANNELS 3 Xrotation Yrotation Zrotation
						JOINT Hat
						{
							OFFSET -0.532200 27.220596 -10.096100
							CHANNELS 3 Xrotation Yrotation Zrotation
							End Site
							{
								OFFSET 0.000000 22.029861 0.000000
							}
						}
						JOINT HairD
						{
							OFFSET -10.777400 17.437393 -1.325900
							CHANNELS 3 Xrotation Yrotation Zrotation
							JOINT HairD1
							{
								OFFSET -3.290299 -11.051193 1.062200
								CHANNELS 3 Xrotation Yrotation Zrotation
								End Site
								{
									OFFSET 0.000000 11.579437 0.000000
								}
							}
						}
						JOINT HairB
						{
							OFFSET -10.777400 17.437393 1.467900
							CHANNELS 3 Xrotation Yrotation Zrotation
							JOINT HairB1
							{
								OFFSET -1.561200 -12.956299 3.590200
								CHANNELS 3 Xrotation Yrotation Zrotation
								End Site
								{
									OFFSET 0.000000 13.534866 0.000000
								}
							}
						}
						JOINT HairA
						{
							OFFSET 9.713100 17.437393 1.467900
							CHANNELS 3 Xrotation Yrotation Zrotation
							JOINT HairA1
							{
								OFFSET 1.561200 -12.956299 3.590200
								CHANNELS 3 Xrotation Yrotation Zrotation
								End Site
								{
									OFFSET 0.000000 13.534866 0.000000
								}
							}
						}
						JOINT HairC
						{
							OFFSET 9.713100 17.437393 -1.325900
							CHANNELS 3 Xrotation Yrotation Zrotation
							JOINT HairC1
							{
								OFFSET 3.290300 -11.051193 1.062200
								CHANNELS 3 Xrotation Yrotation Zrotation
								End Site
								{
									OFFSET 0.000000 11.579437 0.000000
								}
							}
						}
					}
				}
				JOINT LeftShoulder
				{
					OFFSET 5.101800 15.108002 -2.763700
					CHANNELS 3 Xrotation Yrotation Zrotation
					JOINT LeftArm
					{
						OFFSET 9.825497 2.506317 -1.597400
						CHANNELS 3 Xrotation Yrotation Zrotation
						JOINT LeftForeArm
						{
							OFFSET 21.966244 0.000000 0.000000
							CHANNELS 3 Xrotation Yrotation Zrotation
							JOINT LeftHand
							{
								OFFSET 33.879036 0.000000 0.000000
								CHANNELS 3 Xrotation Yrotation Zrotation
								JOINT LeftHandThumb1
								{
									OFFSET 6.715286 -2.359680 3.363841
									CHANNELS 3 Xrotation Yrotation Zrotation
									JOINT LeftHandThumb2
									{
										OFFSET 2.507072 -1.447464 1.447461
										CHANNELS 3 Xrotation Yrotation Zrotation
										JOINT LeftHandThumb3
										{
											OFFSET 2.898338 -1.673355 1.673357
											CHANNELS 3 Xrotation Yrotation Zrotation
											End Site
											{
												OFFSET -0.295959 3.727692 -0.131651
											}
										}
									}
								}
								JOINT LeftHandIndex1
								{
									OFFSET 14.190811 -0.254547 3.840278
									CHANNELS 3 Xrotation Yrotation Zrotation
									JOINT LeftHandIndex2
									{
										OFFSET 3.551727 0.000000 -0.000000
										CHANNELS 3 Xrotation Yrotation Zrotation
										JOINT LeftHandIndex3
										{
											OFFSET 2.894196 0.000000 0.000000
											CHANNELS 3 Xrotation Yrotation Zrotation
											End Site
											{
												OFFSET -1.000603 2.690872 0.366626
											}
										}
									}
								}
								JOINT LeftHandMiddle1
								{
									OFFSET 13.776489 0.000000 0.000000
									CHANNELS 3 Xrotation Yrotation Zrotation
									JOINT LeftHandMiddle2
									{
										OFFSET 3.438232 0.000000 0.000000
										CHANNELS 3 Xrotation Yrotation Zrotation
										JOINT LeftHandMiddle3
										{
											OFFSET 3.691551 0.000000 0.000000
											CHANNELS 3 Xrotation Yrotation Zrotation
											End Site
											{
												OFFSET -1.082298 3.499527 0.457670
											}
										}
									}
								}
								JOINT LeftHandRing1
								{
									OFFSET 13.966164 -0.268127 -3.067488
									CHANNELS 3 Xrotation Yrotation Zrotation
									JOINT LeftHandRing2
									{
										OFFSET 3.162567 0.000000 0.000000
										CHANNELS 3 Xrotation Yrotation Zrotation
										JOINT LeftHandRing3
										{
											OFFSET 3.324348 0.000000 0.000000
											CHANNELS 3 Xrotation Yrotation Zrotation
											End Site
											{
												OFFSET -0.861900 3.184998 0.405154
											}
										}
									}
								}
								JOINT LeftHandPinky1
								{
									OFFSET 13.131393 -0.168503 -5.746925
									CHANNELS 3 Xrotation Yrotation Zrotation
									JOINT LeftHandPinky2
									{
										OFFSET 2.849182 0.000000 0.000000
										CHANNELS 3 Xrotation Yrotation Zrotation
										JOINT LeftHandPinky3
										{
											OFFSET 2.805038 0.000000 0.000000
											CHANNELS 3 Xrotation Yrotation Zrotation
											End Site
											{
												OFFSET -0.882500 2.642609 0.325652
											}
										}
									}
								}
							}
							JOINT Left_Sleeve
							{
								OFFSET 6.592125 -0.646545 0.805568
								CHANNELS 3 Xrotation Yrotation Zrotation
								End Site
								{
									OFFSET -0.000179 20.275787 -0.000000
								}
							}
						}
					}
				}
				JOINT RightShoulder
				{
					OFFSET -5.731700 15.108002 -2.763700
					CHANNELS 3 Xrotation Yrotation Zrotation
					JOINT RightArm
					{
						OFFSET -9.825497 2.506317 -1.597400
						CHANNELS 3 Xrotation Yrotation Zrotation
						JOINT RightForeArm
						{
							OFFSET -21.966242 0.000000 0.000000
							CHANNELS 3 Xrotation Yrotation Zrotation
							JOINT RightHand
							{
								OFFSET -33.879032 0.000000 0.000000
								CHANNELS 3 Xrotation Yrotation Zrotation
								JOINT RightHandThumb1
								{
									OFFSET -6.715286 -2.359680 3.363841
									CHANNELS 3 Xrotation Yrotation Zrotation
									JOINT RightHandThumb2
									{
										OFFSET -2.507072 -1.447464 1.447461
										CHANNELS 3 Xrotation Yrotation Zrotation
										JOINT RightHandThumb3
										{
											OFFSET -2.898338 -1.673355 1.673357
											CHANNELS 3 Xrotation Yrotation Zrotation
											End Site
											{
												OFFSET 0.295959 3.727692 -0.131651
											}
										}
									}
								}
								JOINT RightHandIndex1
								{
									OFFSET -14.190811 -0.254547 3.840278
									CHANNELS 3 Xrotation Yrotation Zrotation
									JOINT RightHandIndex2
									{
										OFFSET -3.551727 0.000000 -0.000000
										CHANNELS 3 Xrotation Yrotation Zrotation
										JOINT RightHandIndex3
										{
											OFFSET -2.894196 0.000000 0.000000
											CHANNELS 3 Xrotation Yrotation Zrotation
											End Site
											{
												OFFSET 1.000603 2.690872 0.366626
											}
										}
									}
								}
								JOINT RightHandMiddle1
								{
									OFFSET -13.776489 0.000000 0.000000
									CHANNELS 3 Xrotation Yrotation Zrotation
									JOINT RightHandMiddle2
									{
										OFFSET -3.438232 0.000000 0.000000
										CHANNELS 3 Xrotation Yrotation Zrotation
										JOINT RightHandMiddle3
										{
											OFFSET -3.691551 0.000000 0.000000
											CHANNELS 3 Xrotation Yrotation Zrotation
											End Site
											{
												OFFSET 1.082298 3.499527 0.457670
											}
										}
									}
								}
								JOINT RightHandRing1
								{
									OFFSET -13.966164 -0.268127 -3.067488
									CHANNELS 3 Xrotation Yrotation Zrotation
									JOINT RightHandRing2
									{
										OFFSET -3.162567 0.000000 0.000000
										CHANNELS 3 Xrotation Yrotation Zrotation
										JOINT RightHandRing3
										{
											OFFSET -3.324348 0.000000 0.000000
											CHANNELS 3 Xrotation Yrotation Zrotation
											End Site
											{
												OFFSET 0.861900 3.184998 0.405154
											}
										}
									}
								}
								JOINT RightHandPinky1
								{
									OFFSET -13.131393 -0.168503 -5.746925
									CHANNELS 3 Xrotation Yrotation Zrotation
									JOINT RightHandPinky2
									{
										OFFSET -2.849182 0.000000 0.000000
										CHANNELS 3 Xrotation Yrotation Zrotation
										JOINT RightHandPinky3
										{
											OFFSET -2.805038 0.000000 0.000000
											CHANNELS 3 Xrotation Yrotation Zrotation
											End Site
											{
												OFFSET 0.882500 2.642609 0.325652
											}
										}
									}
								}
							}
							JOINT Right_Sleeve
							{
								OFFSET -6.592125 -0.646545 0.805568
								CHANNELS 3 Xrotation Yrotation Zrotation
								End Site
								{
									OFFSET 0.000179 20.275787 -0.000000
								}
							}
						}
					}
				}
				JOINT Bind_Right_JacketString
				{
					OFFSET -3.534800 11.969597 7.200700
					CHANNELS 3 Xrotation Yrotation Zrotation
					JOINT Bind_Right_JacketString1
					{
						OFFSET -0.319900 -6.102600 2.794100
						CHANNELS 3 Xrotation Yrotation Zrotation
						End Site
						{
							OFFSET 0.000000 6.719452 0.000000
						}
					}
				}
				JOINT Bind_Left_JacketString
				{
					OFFSET 2.904800 11.969597 7.200700
					CHANNELS 3 Xrotation Yrotation Zrotation
					JOINT Bind_Left_JacketString1
					{
						OFFSET 0.364800 -5.904503 3.186800
						CHANNELS 3 Xrotation Yrotation Zrotation
						End Site
						{
							OFFSET 0.000000 6.719513 0.000000
						}
					}
				}
				JOINT HairE
				{
					OFFSET 5.915200 17.612701 -11.592200
					CHANNELS 3 Xrotation Yrotation Zrotation
					JOINT HairE1
					{
						OFFSET 0.289200 -7.171898 -1.284500
						CHANNELS 3 Xrotation Yrotation Zrotation
						End Site
						{
							OFFSET 0.000000 7.291756 0.000000
						}
					}
				}
				JOINT HairF
				{
					OFFSET -0.864800 17.612701 -11.592200
					CHANNELS 3 Xrotation Yrotation Zrotation
					JOINT HairF1
					{
						OFFSET 0.000000 -14.087097 -2.127501
						CHANNELS 3 Xrotation Yrotation Zrotation
						End Site
						{
							OFFSET 0.000000 14.246841 0.000000
						}
					}
				}
				JOINT HairG
				{
					OFFSET -8.087700 17.612701 -11.592200
					CHANNELS 3 Xrotation Yrotation Zrotation
					JOINT HairG1
					{
						OFFSET -0.293600 -6.081398 -0.910100
						CHANNELS 3 Xrotation Yrotation Zrotation
						End Site
						{
							OFFSET 0.000000 6.156120 0.000000
						}
					}
				}
			}
		}
	}
	JOINT Pouch
	{
		OFFSET 0.000000 4.394501 10.847300
		CHANNELS 3 Xrotation Yrotation Zrotation
		End Site
		{
			OFFSET 0.000000 21.880577 0.000000
		}
	}
	JOINT Bag
	{
		OFFSET -13.229000 4.813004 -0.593300
		CHANNELS 3 Xrotation Yrotation Zrotation
		End Site
		{
			OFFSET 0.000000 21.880577 0.000000
		}
	}
	JOINT OccupyGuyFacialAnim_Joint
	{
		OFFSET 1.000000 -70.206398 -1.655000
		CHANNELS 3 Xrotation Yrotation Zrotation
		End Site
		{
			OFFSET 0.000000 21.880577 0.000000
		}
	}
}
MOTION
Frames: 4
Frame Time: 0.016667
2.683046 5.350197 6.324547 87.460026 0.096143 0.963336 -0.000000 0.000000 0.000000 -4.068364 7.899195 7.913549 8.157188 17.082423 1.567981 49.852639 29.000628 -14.264474 0.000000 -0.000001 -0.000001 -0.000001 -0.000001 -0.000001 -6.503392 -8.921316 -10.418941 15.093762 -17.850051 -0.054379 48.030133 -28.397099 23.955131 -0.000001 -0.000001 -0.000000 -0.000001 -0.000001 -0.000000 3.812451 0.585200 -1.027740 0.793258 0.138200 -0.141419 0.792531 0.141294 -0.141442 -5.136614 -13.863060 6.464564 -18.401115 -57.031011 -18.459160 -0.000000 0.000002 -0.000000 -0.000000 0.000002 -0.000000 -0.000000 0.000002 -0.000000 -0.000000 0.000002 -0.000000 -0.000000 0.000002 -0.000000 -0.000000 0.000002 -0.000000 -0.000000 0.000002 -0.000000 -0.000000 0.000002 -0.000000 -0.000000 0.000002 -0.000000 3.766320 -21.296509 -1.257000 15.600405 -18.626711 -61.954453 0.000006 -18.654968 -0.000002 42.089022 7.016513 -15.750998 -1.540046 3.690188 6.142356 3.939053 7.948712 0.746809 -0.000000 0.000002 0.000001 0.298627 2.009619 -16.903096 0.539680 2.676775 -22.793562 0.000000 0.000001 0.000002 0.298065 2.007744 -16.887103 0.540429 2.678567 -22.809574 0.000001 0.000001 0.000006 0.298628 2.009598 -16.903096 0.539680 2.676792 -22.793559 0.000002 -0.000001 0.000003 1.465418 5.893267 -16.473127 0.544999 -1.382196 -23.265301 -0.000001 -0.000001 -0.000001 -0.000001 -0.000000 -0.000000 0.640302 15.700663 9.197083 13.898627 -3.320477 53.523487 -0.000003 31.875311 -0.000004 15.264773 -23.834177 10.590710 -1.849247 -3.581802 -6.586129 4.637202 -8.634109 -0.225389 0.000004 -0.000002 -0.000002 0.480699 -2.544863 21.389441 1.003292 -3.603106 31.111310 -0.000003 0.000002 -0.000001 0.480705 -2.544863 21.389441 1.003308 -3.603096 31.111314 0.000004 -0.000002 -0.000001 0.480703 -2.544846 21.389434 1.003301 -3.603113 31.111307 0.000001 -0.000000 -0.000002 0.480697 -2.544869 21.389434 1.003304 -3.603112 31.111314 0.000001 0.000003 -0.000004 -0.000003 -0.000001 -0.000001 0.000000 -0.000000 0.000000 0.000000 -0.000000 0.000000 0.000000 -0.000000 0.000000 0.000000 -0.000000 0.000000 0.000000 -0.000000 0.000000 0.000000 -0.000000 0.000000 0.000000 -0.000000 0.000000 0.000000 -0.000000 0.000000 0.000000 -0.000000 0.000000 0.000000 -0.000000 0.000000 -0.000000 0.000000 0.000000 -0.000000 0.000000 0.000000 -0.000000 0.000000 0.000000 
2.682770 5.351196 6.324799 87.450532 0.099842 0.963845 -0.000000 0.000000 0.000000 -4.069400 7.903862 7.917643 8.178743 17.090581 1.566275 49.838996 29.008998 -14.285908 0.000000 0.000001 -0.000002 -0.000001 -0.000000 0.000000 -6.492972 -8.924247 -10.419239 15.085216 -17.844368 -0.050568 48.040443 -28.398499 23.935191 0.000003 -0.000000 0.000001 0.000000 -0.000001 -0.000000 3.821058 0.582296 -1.027227 0.795021 0.137604 -0.141028 0.794326 0.140705 -0.141052 -5.134271 -13.862901 6.460973 -18.393349 -57.036424 -18.452401 -0.000000 -0.000000 0.000000 -0.000000 -0.000000 0.000000 -0.000000 -0.000000 0.000000 -0.000000 -0.000000 0.000000 0.000000 -0.000000 0.000000 -0.000000 -0.000000 0.000000 0.000000 -0.000000 0.000000 -0.000000 -0.000000 0.000000 -0.000000 -0.000000 0.000000 3.774320 -21.342082 -1.254778 15.591976 -18.591061 -61.965279 -0.000001 -18.641608 0.000005 42.085495 7.002027 -15.750927 -1.540046 3.690173 6.142355 3.939050 7.948679 0.746811 -0.000000 0.000002 0.000000 0.298631 2.009606 -16.903099 0.539675 2.676784 -22.793554 0.000001 -0.000000 0.000002 0.298065 2.007743 -16.887103 0.540424 2.678592 -22.809569 0.000001 0.000003 -0.000001 0.298633 2.009583 -16.903098 0.539665 2.676796 -22.793545 -0.000000 -0.000001 -0.000001 1.465416 5.893254 -16.473130 0.545002 -1.382158 -23.265281 -0.000001 -0.000001 0.000006 -0.000000 -0.000001 -0.000002 0.641022 15.689947 9.189850 13.871899 -3.307263 53.531553 0.000001 31.852075 0.000004 15.245623 -23.874489 10.516410 -1.849251 -3.581792 -6.586129 4.637177 -8.634142 -0.225416 -0.000002 0.000002 0.000002 0.480690 -2.544879 21.389410 1.003324 -3.603103 31.111310 -0.000005 -0.000000 0.000000 0.480699 -2.544875 21.389420 1.003306 -3.603117 31.111300 0.000004 -0.000005 0.000002 0.480699 -2.544856 21.389414 1.003312 -3.603128 31.111307 0.000000 -0.000001 -0.000002 0.480697 -2.544873 21.389415 1.003307 -3.603120 31.111303 0.000001 -0.000002 0.000002 -0.000002 0.000001 0.000000 0.000000 -0.000000 0.000000 0.000000 -0.000000 0.000000 0.000000 -0.000000 0.000000 0.000000 -0.000000 0.000000 0.000000 -0.000000 0.000000 0.000000 -0.000000 0.000000 0.000000 -0.000000 0.000000 0.000000 -0.000000 0.000000 0.000000 -0.000000 0.000000 0.000000 -0.000000 0.000000 -0.000000 0.000000 0.000000 -0.000000 0.000000 0.000000 -0.000000 0.000000 0.000000 
2.682681 5.353409 6.325195 87.458216 0.104406 0.968515 0.000000 0.000000 -0.000000 -4.076155 7.898416 7.909506 8.178057 17.102517 1.577193 49.840106 29.021627 -14.325821 -0.000001 0.000001 -0.000003 -0.000001 0.000000 0.000000 -6.508469 -8.925974 -10.427902 15.101658 -17.847696 -0.047670 48.036143 -28.396202 23.954920 0.000002 0.000001 0.000000 -0.000000 -0.000000 -0.000000 3.811499 0.578505 -1.028540 0.792723 0.136766 -0.140974 0.792048 0.139859 -0.141001 -5.125217 -13.862460 6.457379 -18.396662 -57.041669 -18.453995 -0.000001 0.000001 0.000000 -0.000001 0.000001 0.000000 -0.000001 0.000001 0.000000 -0.000001 0.000001 -0.000000 -0.000000 0.000001 -0.000001 -0.000001 0.000001 -0.000000 -0.000000 0.000001 -0.000001 -0.000001 0.000001 0.000000 -0.000001 0.000001 0.000000 3.780984 -21.376641 -1.256568 15.556886 -18.576965 -61.979684 -0.000006 -18.573192 -0.000007 42.065206 6.975422 -15.756067 -1.540045 3.690182 6.142355 3.939055 7.948699 0.746811 0.000000 0.000003 0.000000 0.298627 2.009580 -16.903106 0.539669 2.676785 -22.793555 -0.000001 0.000000 -0.000000 0.298069 2.007745 -16.887105 0.540425 2.678553 -22.809574 -0.000000 0.000002 -0.000004 0.298631 2.009588 -16.903099 0.539679 2.676774 -22.793562 -0.000000 0.000000 -0.000001 1.465415 5.893251 -16.473129 0.545010 -1.382170 -23.265296 -0.000000 0.000000 0.000001 -0.000002 -0.000001 0.000001 0.640463 15.698717 9.195479 13.865607 -3.329057 53.534917 0.000016 31.844008 0.000003 15.261211 -23.895914 10.436529 -1.849253 -3.581776 -6.586132 4.637201 -8.634137 -0.225402 0.000002 0.000001 -0.000003 0.480690 -2.544886 21.389408 1.003316 -3.603109 31.111320 -0.000003 0.000004 0.000001 0.480685 -2.544884 21.389408 1.003324 -3.603120 31.111324 0.000004 -0.000003 0.000000 0.480690 -2.544870 21.389407 1.003307 -3.603128 31.111324 0.000004 0.000001 -0.000003 0.480689 -2.544889 21.389410 1.003308 -3.603116 31.111324 0.000002 -0.000000 -0.000003 -0.000002 0.000000 -0.000002 -0.000000 0.000000 -0.000000 -0.000000 -0.000000 -0.000000 -0.000000 0.000000 -0.000000 -0.000000 0.000000 -0.000000 -0.000000 0.000000 -0.000000 -0.000000 -0.000000 -0.000000 -0.000000 0.000000 -0.000000 -0.000000 0.000000 -0.000000 -0.000000 0.000000 -0.000000 -0.000000 -0.000000 -0.000000 0.000000 0.000000 -0.000000 0.000000 0.000000 -0.000000 0.000000 0.000000 -0.000000 
2.682630 5.356064 6.325203 87.469595 0.106689 0.972570 -0.000000 0.000000 -0.000000 -4.080145 7.889555 7.897775 8.159622 17.106677 1.590771 49.852328 29.029953 -14.344485 0.000000 0.000000 0.000000 -0.000000 0.000001 0.000000 -6.531262 -8.925809 -10.436301 15.133777 -17.862106 -0.049141 48.017914 -28.391459 24.006068 0.000002 0.000000 -0.000001 -0.000001 -0.000001 -0.000000 3.799872 0.575974 -1.028034 0.789986 0.136171 -0.140839 0.789271 0.139252 -0.140869 -5.121382 -13.861865 6.453984 -18.401173 -57.042216 -18.461774 -0.000000 0.000000 0.000000 -0.000000 0.000000 0.000000 -0.000000 0.000000 -0.000000 -0.000000 0.000000 -0.000000 0.000000 -0.000001 -0.000000 -0.000000 0.000000 -0.000000 0.000000 -0.000001 -0.000000 -0.000000 0.000000 0.000000 -0.000000 0.000000 0.000000 3.780677 -21.372236 -1.259637 15.494899 -18.603292 -61.991767 0.000012 -18.436576 0.000006 42.055572 6.923418 -15.795207 -1.540046 3.690177 6.142354 3.939054 7.948691 0.746811 -0.000000 -0.000001 0.000000 0.298626 2.009585 -16.903106 0.539676 2.676772 -22.793557 0.000003 0.000000 -0.000002 0.298067 2.007748 -16.887103 0.540419 2.678559 -22.809567 0.000003 0.000000 -0.000001 0.298628 2.009575 -16.903101 0.539675 2.676782 -22.793545 0.000000 0.000002 -0.000002 1.465415 5.893229 -16.473132 0.544998 -1.382142 -23.265291 -0.000001 0.000000 -0.000001 -0.000000 0.000000 -0.000001 0.640996 15.712335 9.191113 13.846818 -3.359450 53.548823 -0.000010 31.824478 -0.000002 15.286107 -23.918014 10.367439 -1.849249 -3.581806 -6.586145 4.637207 -8.634129 -0.225397 -0.000004 -0.000001 0.000000 0.480686 -2.544886 21.389407 1.003311 -3.603098 31.111324 -0.000003 -0.000001 0.000002 0.480691 -2.544883 21.389400 1.003304 -3.603110 31.111314 0.000004 -0.000002 -0.000001 0.480689 -2.544869 21.389405 1.003312 -3.603113 31.111314 -0.000001 -0.000002 -0.000001 0.480684 -2.544883 21.389408 1.003310 -3.603108 31.111314 -0.000002 0.000003 -0.000001 0.000001 0.000003 -0.000002 -0.000000 0.000000 -0.000000 -0.000000 0.000000 -0.000000 -0.000000 0.000000 -0.000000 -0.000000 0.000000 -0.000000 -0.000000 0.000000 -0.000000 -0.000000 0.000000 -0.000000 -0.000000 0.000000 -0.000000 -0.000000 0.000000 -0.000000 -0.000000 0.000000 -0.000000 -0.000000 0.000000 -0.000000 -0.000000 0.000000 -0.000000 -0.000000 0.000000 -0.000000 -0.000000 0.000000 -0.000000 
